<svg width="128" height="128" viewBox="0 0 128 128" fill="none" xmlns="http://www.w3.org/2000/svg">
<g clip-path="url(#clip0_335_4)">
<path d="M60.16 0.191906C48.128 1.31191 38.112 4.67191 29.12 10.5599C14.08 20.4479 4.60796 34.9439 1.08796 53.4399C0.191963 58.1439 0.255963 70.2399 1.21596 75.0399C4.03196 89.2479 10.368 100.992 20.256 110.272C42.944 131.616 77.792 133.536 102.432 114.848C113.376 106.56 121.792 94.3359 125.344 81.5999C127.264 74.6879 127.52 72.7359 127.52 63.8399C127.52 55.2959 127.328 53.5999 125.888 48.1599C122.112 34.1759 114.368 22.2719 103.36 13.7279C94.304 6.68791 84.288 2.43191 72.96 0.799906C69.408 0.287906 62.56 -0.032094 60.16 0.191906ZM67.648 18.5599C72.608 20.2559 75.552 24.4159 75.488 29.6959V32.1599L69.792 37.6639L64.096 43.1679L58.24 37.0879L52.384 31.0079L52.544 28.7039C53.024 21.2159 60.608 16.1279 67.648 18.5599ZM45.184 29.2159C46.656 29.9199 48.384 31.5519 54.432 37.7919L61.856 45.4719L59.808 47.5519L57.76 49.5999H45.728L33.664 49.5679L32.032 47.8399C29.568 45.2479 28.672 43.0719 28.672 39.6799C28.64 37.3759 28.8 36.6719 29.536 35.1039C30.976 31.9679 32.8 30.1439 35.776 28.8959C37.312 28.2559 38.048 28.1599 40.48 28.2239C42.88 28.3199 43.68 28.4799 45.184 29.2159ZM92.192 29.3439C99.04 31.6799 101.984 40.2559 98.048 46.3999C97.408 47.4239 87.264 57.5679 56.96 87.5839C44.48 99.9359 44.416 99.9679 39.52 99.9999C36.896 99.9999 36.448 99.9039 34.496 98.9439C30.272 96.8639 28.064 93.2479 28.064 88.4159C28.064 83.3919 26.592 85.0879 55.68 56.2559C75.52 36.5759 81.664 30.6879 83.008 29.9839C85.728 28.5119 89.088 28.2879 92.192 29.3439ZM54.08 53.0879C54.08 53.2479 48.928 58.4639 42.656 64.6399L31.2 75.8719L28.928 75.7439C20.256 75.2639 15.104 65.5039 19.68 58.2719C20.8 56.4799 23.52 54.1759 25.376 53.4719C26.944 52.8639 27.84 52.8319 40.576 52.8319C48.544 52.7999 54.08 52.9279 54.08 53.0879ZM99.84 53.1519C103.84 53.7919 107.072 56.1919 108.768 59.8079C109.472 61.3439 109.6 62.0159 109.6 64.6399C109.6 67.0719 109.44 67.9679 108.896 69.1839C108.096 70.9119 105.952 73.3759 104.288 74.4319C101.696 76.0639 100.736 76.1599 86.656 76.1599C79.008 76.1599 73.6 76.0319 73.6 75.8719C73.6 75.3599 96.736 52.7999 97.248 52.7999C97.536 52.7999 98.688 52.9599 99.84 53.1519ZM95.808 80.9919C96.608 81.8559 97.664 83.4239 98.144 84.4159C98.944 86.0159 99.04 86.5919 99.04 89.2799C99.04 91.9679 98.912 92.5119 98.144 94.0799C94.624 100.96 86.144 102.88 80.32 98.0799C79.872 97.7279 76.48 94.2399 72.736 90.3679L65.952 83.3279L67.936 81.3439L69.92 79.3599H82.112H94.336L95.808 80.9919ZM69.6 91.8399L75.264 97.7599L75.104 99.6799C74.848 103.36 72.128 107.072 68.576 108.704C61.376 112 53.088 107.168 52.256 99.1999L52.064 97.2159L57.792 91.4879C60.928 88.3519 63.616 85.7919 63.744 85.8239C63.872 85.8879 66.496 88.5759 69.6 91.8399Z" fill="white"/>
</g>
<defs>
<clipPath id="clip0_335_4">
<rect width="128" height="128" fill="white"/>
</clipPath>
</defs>
</svg>
