<svg width="80" height="90" viewBox="0 0 80 90" fill="none" xmlns="http://www.w3.org/2000/svg">
<path d="M31.5667 35.3488C31.1251 35.8779 30.8847 36.5776 30.8961 37.3006C30.9075 38.0235 31.1699 38.7133 31.6279 39.2246C32.086 39.736 32.7039 40.0288 33.3516 40.0416C33.9993 40.0543 34.6261 39.786 35.1 39.293L31.5667 35.3488ZM44.9 39.293C45.1289 39.5672 45.4049 39.7871 45.7115 39.9397C46.0182 40.0922 46.3493 40.1742 46.6849 40.1808C47.0206 40.1874 47.354 40.1185 47.6653 39.9781C47.9766 39.8378 48.2594 39.6289 48.4968 39.3639C48.7342 39.0989 48.9213 38.7832 49.0471 38.4357C49.1728 38.0882 49.2346 37.716 49.2286 37.3413C49.2227 36.9666 49.1492 36.5971 49.0126 36.2548C48.876 35.9124 48.679 35.6043 48.4333 35.3488L44.9 39.293ZM35.1 50.2326C34.8711 49.9584 34.5951 49.7385 34.2885 49.5859C33.9818 49.4334 33.6508 49.3514 33.3151 49.3448C32.9794 49.3382 32.646 49.4071 32.3347 49.5475C32.0234 49.6878 31.7406 49.8967 31.5032 50.1617C31.2658 50.4267 31.0787 50.7424 30.9529 51.0899C30.8272 51.4374 30.7654 51.8096 30.7714 52.1843C30.7773 52.559 30.8508 52.9285 30.9874 53.2708C31.124 53.6132 31.321 53.9213 31.5667 54.1768L35.1 50.2326ZM48.4333 54.1768C48.679 53.9213 48.876 53.6132 49.0126 53.2708C49.1492 52.9285 49.2227 52.559 49.2286 52.1843C49.2346 51.8096 49.1728 51.4374 49.0471 51.0899C48.9213 50.7424 48.7342 50.4267 48.4968 50.1617C48.2594 49.8967 47.9766 49.6878 47.6653 49.5475C47.354 49.4071 47.0206 49.3382 46.6849 49.3448C46.3493 49.3514 46.0182 49.4334 45.7115 49.5859C45.4049 49.7385 45.1289 49.9584 44.9 50.2326L48.4333 54.1768Z" fill="#E6C088"/>
<path d="M10.8333 37.2093V52.093H15.8333V37.2093H10.8333ZM69.1667 52.093V37.2093H64.1667V52.093H69.1667ZM37.5 29.8791V59.6465L40 64.2977L42.5 59.6465V29.8791H37.5ZM38.1395 27.907L31.5667 35.3488L35.1 39.293L43.7209 31.8512L40 25.2279L38.1395 27.907ZM38.2333 31.8512L44.9 39.293L48.4333 35.3488L40.9481 27.0884L38.2333 31.8512ZM41.7667 57.6744L38.4333 53.9535L35.1 50.2326L31.5667 54.1767L38.4458 61.4061L41.7667 57.6744ZM41.5542 61.4061L48.4333 54.1767L44.9 50.2326L38.2333 57.6744L41.5542 61.4061Z" fill="#E6C088"/>
<path d="M69.1667 37.2093C69.1667 28.5743 66.0938 20.293 60.624 14.1872C55.1541 8.08138 47.7355 4.65115 40 4.65115V10.2325C46.4094 10.2325 52.5563 13.0747 57.0884 18.1339C61.6205 23.193 64.1667 30.0546 64.1667 37.2093H69.1667Z" fill="#E6C088"/>
<path d="M40 84.6512C43.8302 84.6512 47.6229 83.809 51.1616 82.1728C54.7003 80.5366 57.9156 78.1384 60.624 75.1151C63.3323 72.0918 65.4807 68.5026 66.9465 64.5525C68.4123 60.6023 69.1667 56.3686 69.1667 52.093H64.1667C64.1667 59.2477 61.6205 66.1093 57.0884 71.1685C52.5563 76.2276 46.4094 79.0698 40 79.0698V84.6512Z" fill="#E6C088"/>
<path d="M10.8333 52.093C10.8333 60.728 13.9062 69.0093 19.3761 75.1151C24.8459 81.2209 32.2645 84.6512 40 84.6512V79.0698C33.5906 79.0698 27.4437 76.2276 22.9116 71.1685C18.3795 66.1093 15.8333 59.2477 15.8333 52.093H10.8333ZM15.8333 37.2093C15.8333 30.0546 18.3795 23.193 22.9116 18.1339C27.4437 13.0747 33.5906 10.2325 40 10.2325V4.65115C32.2645 4.65115 24.8459 8.08138 19.3761 14.1872C13.9062 20.293 10.8333 28.5743 10.8333 37.2093H15.8333Z" fill="#E6C088"/>
</svg>
