<svg width="249" height="52" viewBox="0 0 249 52" fill="none" xmlns="http://www.w3.org/2000/svg">
<circle cx="26" cy="26" r="26" fill="#E6C088"/>
<path d="M17 39V33.7892H30.5288H39C36.7451 37.0049 34.8334 38.9441 30.5288 39H17Z" fill="#040916"/>
<path d="M37.7026 31.2619C37.7026 31.2619 28 34.9762 31.7714 25.6905C35.5429 16.4048 26.2781 13 26.2781 13C26.2781 13 35.9469 16.1517 37.7026 21.1103C39.4583 26.0689 37.7026 31.2619 37.7026 31.2619Z" fill="#040916"/>
<path d="M24.5429 13H17V32.1201H24.5429V13Z" fill="#040916"/>
<path d="M67.375 47H64.233V36.8182H67.5142C68.5019 36.8182 69.3471 37.022 70.0497 37.4297C70.7524 37.834 71.291 38.4157 71.6655 39.1747C72.04 39.9304 72.2273 40.8352 72.2273 41.8892C72.2273 42.9498 72.0384 43.8629 71.6605 44.6286C71.2827 45.3909 70.7325 45.9775 70.0099 46.3885C69.2874 46.7962 68.4091 47 67.375 47ZM65.4659 45.9062H67.2955C68.1373 45.9062 68.835 45.7438 69.3885 45.419C69.942 45.0942 70.3546 44.6319 70.6264 44.032C70.8982 43.4321 71.0341 42.7178 71.0341 41.8892C71.0341 41.0672 70.8999 40.3596 70.6314 39.7663C70.3629 39.1697 69.9619 38.7124 69.4283 38.3942C68.8946 38.0727 68.2301 37.9119 67.4347 37.9119H65.4659V45.9062ZM77.3381 47.1591C76.6023 47.1591 75.9676 46.9967 75.4339 46.6719C74.9036 46.3438 74.4943 45.8864 74.206 45.2997C73.9209 44.7098 73.7784 44.0237 73.7784 43.2415C73.7784 42.4593 73.9209 41.7699 74.206 41.1733C74.4943 40.5734 74.8954 40.1061 75.4091 39.7713C75.9261 39.4332 76.5294 39.2642 77.2188 39.2642C77.6165 39.2642 78.0092 39.3305 78.397 39.4631C78.7848 39.5956 79.1378 39.8111 79.456 40.1094C79.7741 40.4044 80.0277 40.7955 80.2166 41.2827C80.4055 41.7699 80.5 42.3698 80.5 43.0824V43.5795H74.6136V42.5653H79.3068C79.3068 42.1345 79.2206 41.75 79.0483 41.4119C78.8793 41.0739 78.6373 40.8071 78.3224 40.6115C78.0109 40.416 77.643 40.3182 77.2188 40.3182C76.7514 40.3182 76.3471 40.4342 76.0057 40.6662C75.6676 40.8949 75.4074 41.1932 75.2251 41.5611C75.0429 41.929 74.9517 42.3234 74.9517 42.7443V43.4205C74.9517 43.9972 75.0511 44.486 75.25 44.8871C75.4522 45.2848 75.7322 45.5881 76.0902 45.7969C76.4482 46.0024 76.8641 46.1051 77.3381 46.1051C77.6463 46.1051 77.9247 46.062 78.1733 45.9759C78.4252 45.8864 78.6423 45.7538 78.8246 45.5781C79.0069 45.3991 79.1477 45.1771 79.2472 44.9119L80.3807 45.2301C80.2614 45.6146 80.0608 45.9527 79.7791 46.2443C79.4974 46.5327 79.1494 46.758 78.7351 46.9205C78.3208 47.0795 77.8551 47.1591 77.3381 47.1591ZM76.6222 38.3295L77.8352 36.0227H79.2074L77.6562 38.3295H76.6222ZM88.2967 39.3636L85.4728 47H84.2797L81.4558 39.3636H82.7285L84.8365 45.4489H84.916L87.024 39.3636H88.2967ZM92.7736 47.1591C92.0378 47.1591 91.4031 46.9967 90.8695 46.6719C90.3392 46.3438 89.9299 45.8864 89.6415 45.2997C89.3565 44.7098 89.214 44.0237 89.214 43.2415C89.214 42.4593 89.3565 41.7699 89.6415 41.1733C89.9299 40.5734 90.3309 40.1061 90.8446 39.7713C91.3617 39.4332 91.9649 39.2642 92.6543 39.2642C93.052 39.2642 93.4448 39.3305 93.8326 39.4631C94.2203 39.5956 94.5733 39.8111 94.8915 40.1094C95.2097 40.4044 95.4632 40.7955 95.6522 41.2827C95.8411 41.7699 95.9355 42.3698 95.9355 43.0824V43.5795H90.0492V42.5653H94.7424C94.7424 42.1345 94.6562 41.75 94.4838 41.4119C94.3148 41.0739 94.0729 40.8071 93.758 40.6115C93.4464 40.416 93.0785 40.3182 92.6543 40.3182C92.187 40.3182 91.7826 40.4342 91.4412 40.6662C91.1032 40.8949 90.843 41.1932 90.6607 41.5611C90.4784 41.929 90.3873 42.3234 90.3873 42.7443V43.4205C90.3873 43.9972 90.4867 44.486 90.6855 44.8871C90.8877 45.2848 91.1678 45.5881 91.5257 45.7969C91.8837 46.0024 92.2997 46.1051 92.7736 46.1051C93.0819 46.1051 93.3603 46.062 93.6088 45.9759C93.8607 45.8864 94.0778 45.7538 94.2601 45.5781C94.4424 45.3991 94.5833 45.1771 94.6827 44.9119L95.8162 45.2301C95.6969 45.6146 95.4964 45.9527 95.2147 46.2443C94.9329 46.5327 94.5849 46.758 94.1706 46.9205C93.7563 47.0795 93.2907 47.1591 92.7736 47.1591ZM98.8936 36.8182V47H97.7203V36.8182H98.8936ZM104.145 47.1591C103.455 47.1591 102.851 46.995 102.33 46.6669C101.813 46.3388 101.409 45.8797 101.117 45.2898C100.829 44.6998 100.685 44.0104 100.685 43.2216C100.685 42.4261 100.829 41.7318 101.117 41.1385C101.409 40.5452 101.813 40.0845 102.33 39.7564C102.851 39.4283 103.455 39.2642 104.145 39.2642C104.834 39.2642 105.438 39.4283 105.955 39.7564C106.475 40.0845 106.879 40.5452 107.168 41.1385C107.459 41.7318 107.605 42.4261 107.605 43.2216C107.605 44.0104 107.459 44.6998 107.168 45.2898C106.879 45.8797 106.475 46.3388 105.955 46.6669C105.438 46.995 104.834 47.1591 104.145 47.1591ZM104.145 46.1051C104.669 46.1051 105.099 45.9709 105.438 45.7024C105.776 45.4339 106.026 45.081 106.188 44.6435C106.351 44.206 106.432 43.732 106.432 43.2216C106.432 42.7112 106.351 42.2356 106.188 41.7947C106.026 41.3539 105.776 40.9976 105.438 40.7259C105.099 40.4541 104.669 40.3182 104.145 40.3182C103.621 40.3182 103.19 40.4541 102.852 40.7259C102.514 40.9976 102.264 41.3539 102.102 41.7947C101.939 42.2356 101.858 42.7112 101.858 43.2216C101.858 43.732 101.939 44.206 102.102 44.6435C102.264 45.081 102.514 45.4339 102.852 45.7024C103.19 45.9709 103.621 46.1051 104.145 46.1051ZM109.396 49.8636V39.3636H110.53V40.5767H110.669C110.755 40.4441 110.874 40.2751 111.027 40.0696C111.183 39.8608 111.405 39.6752 111.693 39.5128C111.985 39.3471 112.379 39.2642 112.876 39.2642C113.519 39.2642 114.086 39.425 114.577 39.7464C115.067 40.0679 115.45 40.5237 115.725 41.1136C116 41.7036 116.138 42.3996 116.138 43.2017C116.138 44.0104 116 44.7114 115.725 45.3047C115.45 45.8946 115.069 46.352 114.581 46.6768C114.094 46.9983 113.532 47.1591 112.896 47.1591C112.406 47.1591 112.013 47.0779 111.718 46.9155C111.423 46.7498 111.196 46.5625 111.037 46.3537C110.878 46.1416 110.755 45.9659 110.669 45.8267H110.569V49.8636H109.396ZM110.55 43.1818C110.55 43.7585 110.634 44.2673 110.803 44.7081C110.972 45.1456 111.219 45.4886 111.544 45.7372C111.869 45.9825 112.266 46.1051 112.737 46.1051C113.228 46.1051 113.637 45.9759 113.965 45.7173C114.296 45.4555 114.545 45.1042 114.711 44.6634C114.88 44.2192 114.964 43.7254 114.964 43.1818C114.964 42.6449 114.881 42.161 114.716 41.7301C114.553 41.2959 114.306 40.9529 113.975 40.701C113.647 40.4458 113.234 40.3182 112.737 40.3182C112.26 40.3182 111.859 40.4392 111.534 40.6811C111.209 40.9197 110.964 41.2545 110.798 41.6854C110.632 42.1129 110.55 42.6117 110.55 43.1818ZM117.927 49.8636V39.3636H119.061V40.5767H119.2C119.286 40.4441 119.406 40.2751 119.558 40.0696C119.714 39.8608 119.936 39.6752 120.224 39.5128C120.516 39.3471 120.91 39.2642 121.407 39.2642C122.05 39.2642 122.617 39.425 123.108 39.7464C123.598 40.0679 123.981 40.5237 124.256 41.1136C124.531 41.7036 124.669 42.3996 124.669 43.2017C124.669 44.0104 124.531 44.7114 124.256 45.3047C123.981 45.8946 123.6 46.352 123.113 46.6768C122.626 46.9983 122.064 47.1591 121.427 47.1591C120.937 47.1591 120.544 47.0779 120.249 46.9155C119.954 46.7498 119.727 46.5625 119.568 46.3537C119.409 46.1416 119.286 45.9659 119.2 45.8267H119.101V49.8636H117.927ZM119.081 43.1818C119.081 43.7585 119.165 44.2673 119.334 44.7081C119.503 45.1456 119.75 45.4886 120.075 45.7372C120.4 45.9825 120.798 46.1051 121.268 46.1051C121.759 46.1051 122.168 45.9759 122.496 45.7173C122.828 45.4555 123.076 45.1042 123.242 44.6634C123.411 44.2192 123.496 43.7254 123.496 43.1818C123.496 42.6449 123.413 42.161 123.247 41.7301C123.085 41.2959 122.838 40.9529 122.506 40.701C122.178 40.4458 121.765 40.3182 121.268 40.3182C120.791 40.3182 120.39 40.4392 120.065 40.6811C119.74 40.9197 119.495 41.2545 119.329 41.6854C119.164 42.1129 119.081 42.6117 119.081 43.1818ZM129.66 47.1591C128.925 47.1591 128.29 46.9967 127.756 46.6719C127.226 46.3438 126.817 45.8864 126.528 45.2997C126.243 44.7098 126.101 44.0237 126.101 43.2415C126.101 42.4593 126.243 41.7699 126.528 41.1733C126.817 40.5734 127.218 40.1061 127.731 39.7713C128.248 39.4332 128.852 39.2642 129.541 39.2642C129.939 39.2642 130.331 39.3305 130.719 39.4631C131.107 39.5956 131.46 39.8111 131.778 40.1094C132.096 40.4044 132.35 40.7955 132.539 41.2827C132.728 41.7699 132.822 42.3698 132.822 43.0824V43.5795H126.936V42.5653H131.629C131.629 42.1345 131.543 41.75 131.371 41.4119C131.202 41.0739 130.96 40.8071 130.645 40.6115C130.333 40.416 129.965 40.3182 129.541 40.3182C129.074 40.3182 128.669 40.4342 128.328 40.6662C127.99 40.8949 127.73 41.1932 127.547 41.5611C127.365 41.929 127.274 42.3234 127.274 42.7443V43.4205C127.274 43.9972 127.373 44.486 127.572 44.8871C127.774 45.2848 128.055 45.5881 128.412 45.7969C128.77 46.0024 129.186 46.1051 129.66 46.1051C129.969 46.1051 130.247 46.062 130.496 45.9759C130.747 45.8864 130.965 45.7538 131.147 45.5781C131.329 45.3991 131.47 45.1771 131.569 44.9119L132.703 45.2301C132.584 45.6146 132.383 45.9527 132.101 46.2443C131.82 46.5327 131.472 46.758 131.057 46.9205C130.643 47.0795 130.177 47.1591 129.66 47.1591ZM139.42 43.8778V39.3636H140.593V47H139.42V45.7074H139.34C139.161 46.0952 138.883 46.425 138.505 46.6967C138.127 46.9652 137.65 47.0994 137.073 47.0994C136.596 47.0994 136.171 46.995 135.8 46.7862C135.429 46.5741 135.137 46.2559 134.925 45.8317C134.713 45.4041 134.607 44.8655 134.607 44.2159V39.3636H135.78V44.1364C135.78 44.6932 135.936 45.1373 136.248 45.4688C136.563 45.8002 136.964 45.9659 137.451 45.9659C137.742 45.9659 138.039 45.8913 138.341 45.7422C138.646 45.593 138.901 45.3643 139.106 45.0561C139.315 44.7479 139.42 44.3551 139.42 43.8778ZM142.742 47V39.3636H143.875V40.517H143.955C144.094 40.1392 144.346 39.8326 144.711 39.5973C145.075 39.362 145.486 39.2443 145.944 39.2443C146.03 39.2443 146.137 39.246 146.267 39.2493C146.396 39.2526 146.494 39.2576 146.56 39.2642V40.4574C146.52 40.4474 146.429 40.4325 146.287 40.4126C146.147 40.3894 146 40.3778 145.844 40.3778C145.473 40.3778 145.141 40.4557 144.85 40.6115C144.561 40.764 144.333 40.9761 144.164 41.2479C143.998 41.5163 143.915 41.8229 143.915 42.1676V47H142.742ZM153.897 47L151.113 36.8182H152.366L154.493 45.1108H154.593L156.76 36.8182H158.153L160.32 45.1108H160.42L162.547 36.8182H163.8L161.016 47H159.743L157.496 38.8864H157.417L155.17 47H153.897ZM167.668 47.1591C166.932 47.1591 166.298 46.9967 165.764 46.6719C165.234 46.3438 164.824 45.8864 164.536 45.2997C164.251 44.7098 164.108 44.0237 164.108 43.2415C164.108 42.4593 164.251 41.7699 164.536 41.1733C164.824 40.5734 165.225 40.1061 165.739 39.7713C166.256 39.4332 166.859 39.2642 167.549 39.2642C167.947 39.2642 168.339 39.3305 168.727 39.4631C169.115 39.5956 169.468 39.8111 169.786 40.1094C170.104 40.4044 170.358 40.7955 170.547 41.2827C170.736 41.7699 170.83 42.3698 170.83 43.0824V43.5795H164.944V42.5653H169.637C169.637 42.1345 169.551 41.75 169.378 41.4119C169.209 41.0739 168.967 40.8071 168.653 40.6115C168.341 40.416 167.973 40.3182 167.549 40.3182C167.081 40.3182 166.677 40.4342 166.336 40.6662C165.998 40.8949 165.738 41.1932 165.555 41.5611C165.373 41.929 165.282 42.3234 165.282 42.7443V43.4205C165.282 43.9972 165.381 44.486 165.58 44.8871C165.782 45.2848 166.062 45.5881 166.42 45.7969C166.778 46.0024 167.194 46.1051 167.668 46.1051C167.976 46.1051 168.255 46.062 168.503 45.9759C168.755 45.8864 168.972 45.7538 169.155 45.5781C169.337 45.3991 169.478 45.1771 169.577 44.9119L170.711 45.2301C170.591 45.6146 170.391 45.9527 170.109 46.2443C169.827 46.5327 169.479 46.758 169.065 46.9205C168.651 47.0795 168.185 47.1591 167.668 47.1591ZM172.774 47V36.8182H173.947V40.5767H174.047C174.133 40.4441 174.252 40.2751 174.405 40.0696C174.56 39.8608 174.782 39.6752 175.071 39.5128C175.363 39.3471 175.757 39.2642 176.254 39.2642C176.897 39.2642 177.464 39.425 177.954 39.7464C178.445 40.0679 178.828 40.5237 179.103 41.1136C179.378 41.7036 179.515 42.3996 179.515 43.2017C179.515 44.0104 179.378 44.7114 179.103 45.3047C178.828 45.8946 178.447 46.352 177.959 46.6768C177.472 46.9983 176.91 47.1591 176.274 47.1591C175.783 47.1591 175.391 47.0779 175.096 46.9155C174.801 46.7498 174.574 46.5625 174.415 46.3537C174.256 46.1416 174.133 45.9659 174.047 45.8267H173.907V47H172.774ZM173.927 43.1818C173.927 43.7585 174.012 44.2673 174.181 44.7081C174.35 45.1456 174.597 45.4886 174.922 45.7372C175.247 45.9825 175.644 46.1051 176.115 46.1051C176.605 46.1051 177.015 45.9759 177.343 45.7173C177.674 45.4555 177.923 45.1042 178.089 44.6634C178.258 44.2192 178.342 43.7254 178.342 43.1818C178.342 42.6449 178.259 42.161 178.094 41.7301C177.931 41.2959 177.684 40.9529 177.353 40.701C177.025 40.4458 176.612 40.3182 176.115 40.3182C175.638 40.3182 175.237 40.4392 174.912 40.6811C174.587 40.9197 174.342 41.2545 174.176 41.6854C174.01 42.1129 173.927 42.6117 173.927 43.1818ZM185.407 47V36.8182H191.512V37.9119H186.64V41.3523H191.055V42.446H186.64V47H185.407ZM193.382 47V39.3636H194.516V40.517H194.596C194.735 40.1392 194.987 39.8326 195.351 39.5973C195.716 39.362 196.127 39.2443 196.584 39.2443C196.67 39.2443 196.778 39.246 196.907 39.2493C197.037 39.2526 197.134 39.2576 197.201 39.2642V40.4574C197.161 40.4474 197.07 40.4325 196.927 40.4126C196.788 40.3894 196.641 40.3778 196.485 40.3778C196.114 40.3778 195.782 40.4557 195.49 40.6115C195.202 40.764 194.973 40.9761 194.804 41.2479C194.639 41.5163 194.556 41.8229 194.556 42.1676V47H193.382ZM201.561 47.1591C200.825 47.1591 200.19 46.9967 199.657 46.6719C199.126 46.3438 198.717 45.8864 198.429 45.2997C198.144 44.7098 198.001 44.0237 198.001 43.2415C198.001 42.4593 198.144 41.7699 198.429 41.1733C198.717 40.5734 199.118 40.1061 199.632 39.7713C200.149 39.4332 200.752 39.2642 201.441 39.2642C201.839 39.2642 202.232 39.3305 202.62 39.4631C203.007 39.5956 203.36 39.8111 203.679 40.1094C203.997 40.4044 204.25 40.7955 204.439 41.2827C204.628 41.7699 204.723 42.3698 204.723 43.0824V43.5795H198.836V42.5653H203.529C203.529 42.1345 203.443 41.75 203.271 41.4119C203.102 41.0739 202.86 40.8071 202.545 40.6115C202.234 40.416 201.866 40.3182 201.441 40.3182C200.974 40.3182 200.57 40.4342 200.228 40.6662C199.89 40.8949 199.63 41.1932 199.448 41.5611C199.266 41.929 199.174 42.3234 199.174 42.7443V43.4205C199.174 43.9972 199.274 44.486 199.473 44.8871C199.675 45.2848 199.955 45.5881 200.313 45.7969C200.671 46.0024 201.087 46.1051 201.561 46.1051C201.869 46.1051 202.147 46.062 202.396 45.9759C202.648 45.8864 202.865 45.7538 203.047 45.5781C203.23 45.3991 203.37 45.1771 203.47 44.9119L204.603 45.2301C204.484 45.6146 204.283 45.9527 204.002 46.2443C203.72 46.5327 203.372 46.758 202.958 46.9205C202.543 47.0795 202.078 47.1591 201.561 47.1591ZM209.709 47.1591C208.973 47.1591 208.339 46.9967 207.805 46.6719C207.275 46.3438 206.865 45.8864 206.577 45.2997C206.292 44.7098 206.15 44.0237 206.15 43.2415C206.15 42.4593 206.292 41.7699 206.577 41.1733C206.865 40.5734 207.266 40.1061 207.78 39.7713C208.297 39.4332 208.9 39.2642 209.59 39.2642C209.988 39.2642 210.38 39.3305 210.768 39.4631C211.156 39.5956 211.509 39.8111 211.827 40.1094C212.145 40.4044 212.399 40.7955 212.588 41.2827C212.777 41.7699 212.871 42.3698 212.871 43.0824V43.5795H206.985V42.5653H211.678C211.678 42.1345 211.592 41.75 211.419 41.4119C211.25 41.0739 211.008 40.8071 210.694 40.6115C210.382 40.416 210.014 40.3182 209.59 40.3182C209.123 40.3182 208.718 40.4342 208.377 40.6662C208.039 40.8949 207.779 41.1932 207.596 41.5611C207.414 41.929 207.323 42.3234 207.323 42.7443V43.4205C207.323 43.9972 207.422 44.486 207.621 44.8871C207.823 45.2848 208.103 45.5881 208.461 45.7969C208.819 46.0024 209.235 46.1051 209.709 46.1051C210.017 46.1051 210.296 46.062 210.544 45.9759C210.796 45.8864 211.013 45.7538 211.196 45.5781C211.378 45.3991 211.519 45.1771 211.618 44.9119L212.752 45.2301C212.632 45.6146 212.432 45.9527 212.15 46.2443C211.868 46.5327 211.52 46.758 211.106 46.9205C210.692 47.0795 210.226 47.1591 209.709 47.1591ZM215.829 36.8182V47H214.656V36.8182H215.829ZM220.225 47.179C219.741 47.179 219.302 47.0878 218.908 46.9055C218.513 46.7199 218.2 46.4531 217.968 46.1051C217.736 45.7538 217.62 45.3295 217.62 44.8324C217.62 44.3949 217.706 44.0402 217.879 43.7685C218.051 43.4934 218.281 43.2779 218.57 43.1222C218.858 42.9664 219.176 42.8504 219.524 42.7741C219.876 42.6946 220.229 42.6316 220.583 42.5852C221.047 42.5256 221.423 42.4808 221.712 42.451C222.003 42.4179 222.216 42.3632 222.348 42.2869C222.484 42.2107 222.552 42.0781 222.552 41.8892V41.8494C222.552 41.3589 222.418 40.9777 222.149 40.706C221.884 40.4342 221.481 40.2983 220.941 40.2983C220.381 40.2983 219.942 40.4209 219.624 40.6662C219.306 40.9115 219.082 41.1733 218.953 41.4517L217.839 41.054C218.038 40.59 218.303 40.2287 218.634 39.9702C218.969 39.7083 219.334 39.526 219.728 39.4233C220.126 39.3172 220.517 39.2642 220.901 39.2642C221.147 39.2642 221.428 39.294 221.747 39.3537C222.068 39.41 222.378 39.5277 222.676 39.7067C222.978 39.8857 223.228 40.1558 223.427 40.517C223.626 40.8783 223.725 41.3622 223.725 41.9688V47H222.552V45.9659H222.492C222.413 46.1316 222.28 46.3089 222.095 46.4979C221.909 46.6868 221.662 46.8475 221.354 46.9801C221.046 47.1127 220.669 47.179 220.225 47.179ZM220.404 46.125C220.868 46.125 221.259 46.0339 221.578 45.8516C221.899 45.6693 222.141 45.4339 222.303 45.1456C222.469 44.8572 222.552 44.554 222.552 44.2358V43.1619C222.502 43.2216 222.393 43.2763 222.224 43.326C222.058 43.3724 221.866 43.4138 221.647 43.4503C221.432 43.4834 221.221 43.5133 221.016 43.5398C220.814 43.563 220.65 43.5829 220.524 43.5994C220.219 43.6392 219.934 43.7038 219.669 43.7933C219.407 43.8795 219.195 44.0104 219.032 44.1861C218.873 44.3584 218.794 44.5937 218.794 44.892C218.794 45.2997 218.944 45.608 219.246 45.8168C219.551 46.0223 219.937 46.125 220.404 46.125ZM227.04 42.4062V47H225.867V39.3636H227V40.5568H227.1C227.279 40.169 227.551 39.8575 227.915 39.6222C228.28 39.3835 228.75 39.2642 229.327 39.2642C229.844 39.2642 230.297 39.3703 230.684 39.5824C231.072 39.7912 231.374 40.1094 231.589 40.5369C231.805 40.9612 231.912 41.4981 231.912 42.1477V47H230.739V42.2273C230.739 41.6274 230.583 41.16 230.272 40.8253C229.96 40.4872 229.533 40.3182 228.989 40.3182C228.614 40.3182 228.28 40.3994 227.985 40.5618C227.693 40.7242 227.463 40.9612 227.294 41.2727C227.125 41.5843 227.04 41.9621 227.04 42.4062ZM237.159 47.1591C236.443 47.1591 235.826 46.9901 235.309 46.652C234.792 46.3139 234.394 45.8482 234.116 45.255C233.838 44.6617 233.698 43.9839 233.698 43.2216C233.698 42.446 233.841 41.7616 234.126 41.1683C234.414 40.5717 234.815 40.1061 235.329 39.7713C235.846 39.4332 236.449 39.2642 237.139 39.2642C237.676 39.2642 238.16 39.3636 238.59 39.5625C239.021 39.7614 239.374 40.0398 239.649 40.3977C239.924 40.7557 240.095 41.1733 240.161 41.6506H238.988C238.899 41.3026 238.7 40.9943 238.392 40.7259C238.087 40.4541 237.676 40.3182 237.159 40.3182C236.701 40.3182 236.3 40.4375 235.955 40.6761C235.614 40.9115 235.347 41.2446 235.155 41.6754C234.966 42.103 234.872 42.6051 234.872 43.1818C234.872 43.7718 234.964 44.2855 235.15 44.723C235.339 45.1605 235.604 45.5002 235.945 45.7422C236.29 45.9841 236.695 46.1051 237.159 46.1051C237.463 46.1051 237.74 46.0521 237.989 45.946C238.237 45.84 238.448 45.6875 238.62 45.4886C238.793 45.2898 238.915 45.0511 238.988 44.7727H240.161C240.095 45.2235 239.931 45.6295 239.669 45.9908C239.411 46.3487 239.068 46.6338 238.64 46.8459C238.216 47.0547 237.722 47.1591 237.159 47.1591ZM245.078 47.1591C244.343 47.1591 243.708 46.9967 243.174 46.6719C242.644 46.3438 242.235 45.8864 241.946 45.2997C241.661 44.7098 241.519 44.0237 241.519 43.2415C241.519 42.4593 241.661 41.7699 241.946 41.1733C242.235 40.5734 242.636 40.1061 243.149 39.7713C243.666 39.4332 244.27 39.2642 244.959 39.2642C245.357 39.2642 245.749 39.3305 246.137 39.4631C246.525 39.5956 246.878 39.8111 247.196 40.1094C247.514 40.4044 247.768 40.7955 247.957 41.2827C248.146 41.7699 248.24 42.3698 248.24 43.0824V43.5795H242.354V42.5653H247.047C247.047 42.1345 246.961 41.75 246.789 41.4119C246.619 41.0739 246.378 40.8071 246.063 40.6115C245.751 40.416 245.383 40.3182 244.959 40.3182C244.492 40.3182 244.087 40.4342 243.746 40.6662C243.408 40.8949 243.148 41.1932 242.965 41.5611C242.783 41.929 242.692 42.3234 242.692 42.7443V43.4205C242.692 43.9972 242.791 44.486 242.99 44.8871C243.192 45.2848 243.472 45.5881 243.83 45.7969C244.188 46.0024 244.604 46.1051 245.078 46.1051C245.387 46.1051 245.665 46.062 245.914 45.9759C246.165 45.8864 246.383 45.7538 246.565 45.5781C246.747 45.3991 246.888 45.1771 246.987 44.9119L248.121 45.2301C248.002 45.6146 247.801 45.9527 247.519 46.2443C247.238 46.5327 246.89 46.758 246.475 46.9205C246.061 47.0795 245.595 47.1591 245.078 47.1591Z" fill="white"/>
<path d="M69.36 14.1C69 14.1133 68.7133 14.18 68.5 14.3C68.3 14.4067 68.16 14.6 68.08 14.88C68 15.16 67.96 15.56 67.96 16.08V24.02C67.96 24.38 67.9533 24.7133 67.94 25.02C67.9267 25.3267 67.9067 25.5667 67.88 25.74C68.1067 25.7267 68.3667 25.7133 68.66 25.7C68.9533 25.6867 69.1867 25.68 69.36 25.68V27H64.04V25.9C64.4133 25.8867 64.7 25.8267 64.9 25.72C65.1 25.6 65.24 25.4 65.32 25.12C65.4 24.8267 65.44 24.4267 65.44 23.92V15.94C65.44 15.6067 65.4467 15.2867 65.46 14.98C65.4867 14.6733 65.5067 14.4333 65.52 14.26C65.2933 14.2733 65.0333 14.2867 64.74 14.3C64.4467 14.3 64.2133 14.3067 64.04 14.32V13H69.36V14.1ZM70.4223 27V25.86C70.7957 25.86 71.0957 25.7533 71.3223 25.54C71.549 25.3267 71.7357 25.0467 71.8823 24.7C72.029 24.34 72.1823 23.94 72.3423 23.5L76.3223 12.64H77.4023L81.7423 23.7C81.8223 23.9267 81.929 24.2467 82.0623 24.66C82.1957 25.0733 82.269 25.4333 82.2823 25.74C82.509 25.7267 82.729 25.7133 82.9423 25.7C83.1557 25.6867 83.3423 25.68 83.5023 25.68V27H78.4023V25.9C78.8157 25.9 79.0957 25.8133 79.2423 25.64C79.389 25.4667 79.449 25.24 79.4223 24.96C79.409 24.68 79.3423 24.3933 79.2223 24.1L78.7223 22.74L74.0823 22.82L73.6423 24.16C73.5623 24.3867 73.469 24.6467 73.3623 24.94C73.2557 25.22 73.149 25.4733 73.0423 25.7C73.2823 25.6867 73.5423 25.6733 73.8223 25.66C74.1157 25.6467 74.349 25.64 74.5223 25.64V27H70.4223ZM74.5223 21.54H78.2823L77.2023 18.6C77.0423 18.1467 76.889 17.6933 76.7423 17.24C76.609 16.7733 76.4957 16.3467 76.4023 15.96H76.3623C76.2823 16.2267 76.1823 16.5733 76.0623 17C75.9557 17.4267 75.8023 17.9133 75.6023 18.46L74.5223 21.54ZM91.8083 27.2C91.3149 26.0133 90.8149 24.84 90.3083 23.68C89.8149 22.5067 89.3216 21.3267 88.8283 20.14C88.6949 19.8333 88.5416 19.4533 88.3683 19C88.1949 18.5467 88.0216 18.0467 87.8483 17.5C87.6749 16.9533 87.5083 16.3933 87.3483 15.82C87.3749 16.3667 87.3883 16.8867 87.3883 17.38C87.4016 17.86 87.4016 18.3267 87.3883 18.78C87.3883 19.14 87.3816 19.5333 87.3683 19.96C87.3683 20.3867 87.3616 20.8267 87.3483 21.28C87.3349 21.7333 87.3216 22.1933 87.3083 22.66C87.3083 23.1133 87.3083 23.5533 87.3083 23.98C87.2949 24.3133 87.2816 24.64 87.2683 24.96C87.2549 25.28 87.2349 25.54 87.2083 25.74C87.4483 25.7267 87.7149 25.7133 88.0083 25.7C88.3149 25.6867 88.5549 25.68 88.7283 25.68V27H84.4083V25.9C84.7549 25.8867 85.0283 25.8333 85.2283 25.74C85.4283 25.6333 85.5749 25.4533 85.6683 25.2C85.7616 24.9467 85.8083 24.5867 85.8083 24.12L86.0283 15.98C86.0416 15.6467 86.0483 15.3267 86.0483 15.02C86.0616 14.7133 86.0749 14.46 86.0883 14.26C85.8749 14.2733 85.6216 14.2867 85.3283 14.3C85.0349 14.3 84.7949 14.3067 84.6083 14.32V13H88.5883L91.7483 20.8C91.8816 21.1467 92.0216 21.52 92.1683 21.92C92.3283 22.32 92.4816 22.7133 92.6283 23.1C92.7749 23.4867 92.9016 23.8267 93.0083 24.12H93.0283C93.2016 23.6933 93.3683 23.2533 93.5283 22.8C93.6883 22.3333 93.8483 21.9 94.0083 21.5C94.5416 20.0867 95.0816 18.68 95.6283 17.28C96.1883 15.8667 96.7483 14.44 97.3083 13H101.368V14.1C101.062 14.1 100.795 14.1467 100.568 14.24C100.355 14.3333 100.195 14.5133 100.088 14.78C99.9816 15.0333 99.9349 15.4333 99.9483 15.98L100.328 24.12C100.355 24.44 100.355 24.7467 100.328 25.04C100.315 25.3333 100.302 25.5667 100.288 25.74C100.515 25.7133 100.775 25.7 101.068 25.7C101.375 25.6867 101.615 25.68 101.788 25.68V27H96.5883V25.9C96.9216 25.8867 97.1949 25.8267 97.4083 25.72C97.6216 25.6133 97.7749 25.4267 97.8683 25.16C97.9616 24.88 97.9949 24.4733 97.9683 23.94L97.7283 18.92C97.7283 18.7467 97.7149 18.4933 97.6883 18.16C97.6616 17.8267 97.6416 17.4667 97.6283 17.08C97.6149 16.6933 97.6016 16.3267 97.5883 15.98C97.5483 16.0733 97.5016 16.1667 97.4483 16.26C97.4083 16.3533 97.3749 16.4467 97.3483 16.54L93.2483 27.2H91.8083ZM103.61 25.9C103.984 25.8867 104.27 25.8267 104.47 25.72C104.67 25.6 104.81 25.4 104.89 25.12C104.97 24.8267 105.01 24.4267 105.01 23.92V15.94C105.01 15.6067 105.017 15.2867 105.03 14.98C105.057 14.6733 105.077 14.4333 105.09 14.26C104.864 14.2733 104.604 14.2867 104.31 14.3C104.017 14.3 103.784 14.3067 103.61 14.32V13L109.05 12.98C110.33 12.98 111.457 13.16 112.43 13.52C113.417 13.8667 114.237 14.36 114.89 15C115.544 15.64 116.037 16.38 116.37 17.22C116.717 18.06 116.89 18.96 116.89 19.92C116.89 20.76 116.737 21.6 116.43 22.44C116.137 23.28 115.677 24.0467 115.05 24.74C114.437 25.42 113.637 25.9667 112.65 26.38C111.677 26.7933 110.517 27 109.17 27H103.61V25.9ZM107.53 24.02C107.53 24.38 107.524 24.7133 107.51 25.02C107.497 25.3267 107.477 25.5667 107.45 25.74C107.664 25.74 107.897 25.7467 108.15 25.76C108.404 25.76 108.65 25.7667 108.89 25.78C109.13 25.78 109.31 25.78 109.43 25.78C110.204 25.78 110.884 25.6267 111.47 25.32C112.057 25.0133 112.544 24.6 112.93 24.08C113.33 23.56 113.63 22.9667 113.83 22.3C114.03 21.62 114.13 20.9067 114.13 20.16C114.13 18.84 113.924 17.74 113.51 16.86C113.11 15.9667 112.53 15.2933 111.77 14.84C111.01 14.3733 110.07 14.1333 108.95 14.12C108.577 14.1067 108.284 14.16 108.07 14.28C107.857 14.4 107.71 14.6 107.63 14.88C107.564 15.16 107.53 15.5533 107.53 16.06V24.02ZM117.2 27V25.86C117.573 25.86 117.873 25.7533 118.1 25.54C118.326 25.3267 118.513 25.0467 118.66 24.7C118.806 24.34 118.96 23.94 119.12 23.5L123.1 12.64H124.18L128.52 23.7C128.6 23.9267 128.706 24.2467 128.84 24.66C128.973 25.0733 129.046 25.4333 129.06 25.74C129.286 25.7267 129.506 25.7133 129.72 25.7C129.933 25.6867 130.12 25.68 130.28 25.68V27H125.18V25.9C125.593 25.9 125.873 25.8133 126.02 25.64C126.166 25.4667 126.226 25.24 126.2 24.96C126.186 24.68 126.12 24.3933 126 24.1L125.5 22.74L120.86 22.82L120.42 24.16C120.34 24.3867 120.246 24.6467 120.14 24.94C120.033 25.22 119.926 25.4733 119.82 25.7C120.06 25.6867 120.32 25.6733 120.6 25.66C120.893 25.6467 121.126 25.64 121.3 25.64V27H117.2ZM121.3 21.54H125.06L123.98 18.6C123.82 18.1467 123.666 17.6933 123.52 17.24C123.386 16.7733 123.273 16.3467 123.18 15.96H123.14C123.06 16.2267 122.96 16.5733 122.84 17C122.733 17.4267 122.58 17.9133 122.38 18.46L121.3 21.54ZM138.586 27.2C138.092 26.0133 137.592 24.84 137.086 23.68C136.592 22.5067 136.099 21.3267 135.606 20.14C135.472 19.8333 135.319 19.4533 135.146 19C134.972 18.5467 134.799 18.0467 134.626 17.5C134.452 16.9533 134.286 16.3933 134.126 15.82C134.152 16.3667 134.166 16.8867 134.166 17.38C134.179 17.86 134.179 18.3267 134.166 18.78C134.166 19.14 134.159 19.5333 134.146 19.96C134.146 20.3867 134.139 20.8267 134.126 21.28C134.112 21.7333 134.099 22.1933 134.086 22.66C134.086 23.1133 134.086 23.5533 134.086 23.98C134.072 24.3133 134.059 24.64 134.046 24.96C134.032 25.28 134.012 25.54 133.986 25.74C134.226 25.7267 134.492 25.7133 134.786 25.7C135.092 25.6867 135.332 25.68 135.506 25.68V27H131.186V25.9C131.532 25.8867 131.806 25.8333 132.006 25.74C132.206 25.6333 132.352 25.4533 132.446 25.2C132.539 24.9467 132.586 24.5867 132.586 24.12L132.806 15.98C132.819 15.6467 132.826 15.3267 132.826 15.02C132.839 14.7133 132.852 14.46 132.866 14.26C132.652 14.2733 132.399 14.2867 132.106 14.3C131.812 14.3 131.572 14.3067 131.386 14.32V13H135.366L138.526 20.8C138.659 21.1467 138.799 21.52 138.946 21.92C139.106 22.32 139.259 22.7133 139.406 23.1C139.552 23.4867 139.679 23.8267 139.786 24.12H139.806C139.979 23.6933 140.146 23.2533 140.306 22.8C140.466 22.3333 140.626 21.9 140.786 21.5C141.319 20.0867 141.859 18.68 142.406 17.28C142.966 15.8667 143.526 14.44 144.086 13H148.146V14.1C147.839 14.1 147.572 14.1467 147.346 14.24C147.132 14.3333 146.972 14.5133 146.866 14.78C146.759 15.0333 146.712 15.4333 146.726 15.98L147.106 24.12C147.132 24.44 147.132 24.7467 147.106 25.04C147.092 25.3333 147.079 25.5667 147.066 25.74C147.292 25.7133 147.552 25.7 147.846 25.7C148.152 25.6867 148.392 25.68 148.566 25.68V27H143.366V25.9C143.699 25.8867 143.972 25.8267 144.186 25.72C144.399 25.6133 144.552 25.4267 144.646 25.16C144.739 24.88 144.772 24.4733 144.746 23.94L144.506 18.92C144.506 18.7467 144.492 18.4933 144.466 18.16C144.439 17.8267 144.419 17.4667 144.406 17.08C144.392 16.6933 144.379 16.3267 144.366 15.98C144.326 16.0733 144.279 16.1667 144.226 16.26C144.186 16.3533 144.152 16.4467 144.126 16.54L140.026 27.2H138.586ZM150.388 27V25.9C150.761 25.8867 151.048 25.82 151.248 25.7C151.448 25.58 151.588 25.38 151.668 25.1C151.748 24.8067 151.788 24.4 151.788 23.88V15.98C151.788 15.62 151.794 15.2867 151.808 14.98C151.834 14.6733 151.854 14.4333 151.868 14.26C151.641 14.2733 151.381 14.2867 151.088 14.3C150.794 14.3 150.561 14.3067 150.388 14.32V13C151.241 12.9867 152.101 12.98 152.968 12.98C153.834 12.98 154.708 12.9733 155.588 12.96C157.161 12.9467 158.408 13.2333 159.328 13.82C160.248 14.4067 160.681 15.3067 160.628 16.52C160.614 16.92 160.494 17.3133 160.268 17.7C160.041 18.0867 159.708 18.4333 159.268 18.74C158.828 19.0467 158.274 19.28 157.608 19.44V19.46C158.981 19.6067 160.001 20.02 160.668 20.7C161.334 21.3667 161.668 22.1467 161.668 23.04C161.668 23.8933 161.461 24.6133 161.048 25.2C160.634 25.7867 160.061 26.2333 159.328 26.54C158.608 26.8467 157.788 27 156.868 27H150.388ZM154.228 25.78C154.454 25.7933 154.688 25.8 154.928 25.8C155.181 25.8 155.421 25.8 155.648 25.8C155.874 25.7867 156.068 25.78 156.228 25.78C157.108 25.7533 157.774 25.5 158.228 25.02C158.694 24.5267 158.928 23.8667 158.928 23.04C158.928 22.36 158.788 21.8267 158.508 21.44C158.241 21.0533 157.888 20.78 157.448 20.62C157.021 20.46 156.561 20.38 156.068 20.38C155.708 20.38 155.394 20.38 155.128 20.38C154.861 20.38 154.588 20.3933 154.308 20.42V24.1C154.308 24.46 154.301 24.7867 154.288 25.08C154.274 25.3733 154.254 25.6067 154.228 25.78ZM154.308 19.2L155.488 19.18C156.114 19.1667 156.608 19.0333 156.968 18.78C157.328 18.5133 157.588 18.1733 157.748 17.76C157.908 17.3333 157.988 16.8733 157.988 16.38C157.974 15.7933 157.841 15.34 157.588 15.02C157.348 14.6867 157.048 14.4533 156.688 14.32C156.328 14.1867 155.954 14.1267 155.568 14.14C155.288 14.14 155.054 14.18 154.868 14.26C154.681 14.34 154.541 14.5067 154.448 14.76C154.354 15.0133 154.308 15.3933 154.308 15.9V19.2ZM161.731 27V25.86C162.104 25.86 162.404 25.7533 162.631 25.54C162.858 25.3267 163.044 25.0467 163.191 24.7C163.338 24.34 163.491 23.94 163.651 23.5L167.631 12.64H168.711L173.051 23.7C173.131 23.9267 173.238 24.2467 173.371 24.66C173.504 25.0733 173.578 25.4333 173.591 25.74C173.818 25.7267 174.038 25.7133 174.251 25.7C174.464 25.6867 174.651 25.68 174.811 25.68V27H169.711V25.9C170.124 25.9 170.404 25.8133 170.551 25.64C170.698 25.4667 170.758 25.24 170.731 24.96C170.718 24.68 170.651 24.3933 170.531 24.1L170.031 22.74L165.391 22.82L164.951 24.16C164.871 24.3867 164.778 24.6467 164.671 24.94C164.564 25.22 164.458 25.4733 164.351 25.7C164.591 25.6867 164.851 25.6733 165.131 25.66C165.424 25.6467 165.658 25.64 165.831 25.64V27H161.731ZM165.831 21.54H169.591L168.511 18.6C168.351 18.1467 168.198 17.6933 168.051 17.24C167.918 16.7733 167.804 16.3467 167.711 15.96H167.671C167.591 16.2267 167.491 16.5733 167.371 17C167.264 17.4267 167.111 17.9133 166.911 18.46L165.831 21.54Z" fill="white"/>
</svg>
